<svg width="367" height="74" viewBox="0 0 367 74" fill="none" xmlns="http://www.w3.org/2000/svg">
<g clip-path="url(#clip0_144_8)">
<path fill-rule="evenodd" clip-rule="evenodd" d="M43.1093 69.5327H71.5795L74.4837 74H6.77133L9.13828 69.5327H38.1748L0 0H10.7117L40.6274 66.6027L71.0268 0H81.7386L43.1093 69.5327Z" fill="black"/>
<path fill-rule="evenodd" clip-rule="evenodd" d="M186.109 69.5327H214.579L217.484 74H149.771L152.138 69.5327H181.175L143 0H153.712L183.627 66.6027L214.027 0H224.739L186.109 69.5327Z" fill="black"/>
<path fill-rule="evenodd" clip-rule="evenodd" d="M328.109 69.5327H356.579L359.484 74H291.771L294.138 69.5327H323.175L285 0H295.712L325.627 66.6027L356.027 0H366.739L328.109 69.5327Z" fill="black"/>
</g>
<defs>
<clipPath id="clip0_144_8">
<rect width="367" height="74" fill="white"/>
</clipPath>
</defs>
</svg>
