<?xml version="1.0" encoding="UTF-8" standalone="no"?>
<!DOCTYPE svg PUBLIC "-//W3C//DTD SVG 1.1//EN" "http://www.w3.org/Graphics/SVG/1.1/DTD/svg11.dtd">
<svg width="100%" height="100%" viewBox="0 0 442 496" version="1.1" xmlns="http://www.w3.org/2000/svg" xmlns:xlink="http://www.w3.org/1999/xlink" xml:space="preserve" xmlns:serif="http://www.serif.com/" style="fill-rule:evenodd;clip-rule:evenodd;stroke-linejoin:round;stroke-miterlimit:2;">
    <g transform="matrix(1,0,0,1,-420.86,-1205.19)">
        <g transform="matrix(4.16667,0,0,4.16667,0,0)">
            <g transform="matrix(0.24,0,0,0.24,0,0)">
                <path d="M527.226,1411.43C528.33,1410.7 529.459,1410.08 530.622,1409.55C521.892,1401.03 514.646,1390.61 509.927,1379.35C503.17,1363.24 500.989,1347.16 502.446,1331.73C506.807,1331.67 511.677,1330.95 516.675,1329.83C519.524,1354.7 525.955,1382.29 536.237,1407.66C538.126,1407.21 540.121,1406.89 542.253,1406.64C542.67,1406.6 543.088,1406.55 543.506,1406.51C544.099,1405.95 544.701,1405.4 545.31,1404.86C552.797,1398.2 563.337,1391.35 573.699,1394.84C574.68,1395.17 575.699,1395.55 576.742,1395.97C578.617,1399.71 580.6,1403.38 582.691,1406.99C584.12,1407.08 585.663,1407.19 587.199,1407.31C585.469,1404.4 583.811,1401.46 582.226,1398.47C587.345,1401.06 592.642,1404.46 597.05,1408.3C597.321,1408.35 597.527,1408.39 597.658,1408.44C599.473,1409.04 602.156,1409.4 603.694,1410.53C604.567,1411.17 605.401,1411.86 606.196,1412.59C604.573,1410.4 602.588,1408.27 600.355,1406.25C594.295,1400.77 586.433,1396.06 579.462,1393.07C576.902,1387.88 574.549,1382.54 572.402,1377.03C575.06,1373.72 577.228,1370.46 578.631,1367.93C579.894,1365.65 581.097,1363.32 582.25,1360.93C584.699,1363.24 587.536,1365.74 590.788,1368.46C602.054,1377.87 618.854,1379.02 637.899,1374.39L638.062,1374.61L639.565,1376.58C638.397,1378.04 637.324,1379.46 636.389,1380.83C632.938,1385.89 631.412,1390.46 632.933,1394.33C633.866,1396.69 635.945,1398.9 639.68,1400.78C644.516,1403.21 652.362,1405.2 664.257,1406.61C664.743,1407.15 665.235,1407.69 665.727,1408.23C668.208,1410.94 670.693,1413.55 673.18,1416.07C672.857,1418.57 672.534,1421.08 672.211,1423.59C652.063,1425.7 631.978,1427.76 615.988,1429.44C616.28,1430.65 616.508,1431.88 616.668,1433.11C632.361,1431.46 651.976,1429.45 671.722,1427.38C671.211,1431.33 670.695,1435.29 670.166,1439.24L669.361,1439.81C657.934,1439.36 647.075,1442.19 641.573,1447.53C636.935,1452.02 631.894,1454.3 626.568,1455.03C622.785,1451.5 619.058,1448.02 615.725,1444.75C615.286,1445.98 614.747,1447.18 614.139,1448.34C616.459,1450.58 618.94,1452.91 621.476,1455.27C618.123,1455.16 614.677,1454.54 611.165,1453.57C609.847,1455.87 608.462,1458.13 606.646,1460.03C606.17,1460.53 605.678,1460.99 605.171,1461.41C604.846,1466.74 604.577,1472.08 604.368,1477.42C602.091,1478.6 599.818,1479.78 597.554,1480.96C590.221,1476.85 583.433,1471.63 577.178,1465.53C575.738,1465.42 574.336,1465.32 572.992,1465.28C572.544,1465.26 572.096,1465.25 571.647,1465.24C578.349,1472.24 585.672,1478.26 593.631,1483.01C589.572,1485.13 585.557,1487.25 581.603,1489.37C575.745,1492.51 571.224,1497.75 568.192,1504.14C560.112,1496.05 555.851,1485.86 557.484,1473.67C557.865,1470.83 559.839,1468.05 562.721,1465.26C561.093,1465.25 559.466,1465.21 557.842,1465.1C555.596,1467.79 554.152,1470.49 553.793,1473.17C551.921,1487.14 557.021,1498.77 566.649,1507.84C565.658,1510.57 564.912,1513.44 564.419,1516.42C561.53,1533.85 567.356,1554.49 583.245,1565.45C591.183,1570.92 600.198,1573.35 609.595,1573.66C610.767,1577.92 612.203,1581.82 613.966,1585.08C617.183,1591.03 621.501,1594.92 627.044,1595.52C628.471,1595.68 629.994,1595.61 631.617,1595.29C631.264,1598.2 631.093,1600.97 631.139,1603.56C631.284,1611.71 633.734,1617.81 637.685,1622.26C636.181,1623.57 634.684,1624.88 633.189,1626.18C619.076,1638.46 604.665,1654.91 588.498,1667.01C572.741,1678.81 555.303,1686.47 534.725,1681.53C530.529,1680.52 516.923,1677.75 510.402,1675.83C508.112,1664.27 507.399,1648.71 509.603,1635.59C510.667,1629.25 512.411,1623.48 515.037,1619.04C517.486,1614.9 520.694,1611.94 524.901,1610.97C538.44,1607.83 553.081,1610.71 566.867,1608.87C568.246,1608.68 574.529,1608.04 578.193,1606.52C579.398,1606.02 580.355,1605.41 580.952,1604.74C581.58,1604.04 581.891,1603.26 581.902,1602.44C581.91,1601.82 581.715,1601.15 581.234,1600.48C580.633,1599.64 579.419,1598.67 577.816,1597.74C573.339,1595.14 565.587,1592.45 563.767,1591.76C550.194,1586.62 535.228,1584.71 521.147,1581.18C518.12,1580.42 514.483,1579.82 511.035,1578.8C507.89,1577.88 504.891,1576.63 502.816,1574.43C500.53,1572.02 499.522,1569.78 499.495,1567.69C499.464,1565.28 500.719,1563.14 502.428,1561.29C504.34,1559.21 506.842,1557.48 509.137,1556.17C509.431,1556 519.918,1550.62 522.012,1549.53C523.405,1548.81 523.37,1547.51 523.37,1547.5C523.335,1547.16 523.189,1546.53 522.428,1545.99C521.978,1545.67 520.713,1545.1 518.872,1544.35C513.99,1542.38 504.629,1538.86 497.124,1534.79C492.478,1532.27 488.514,1529.62 487.14,1526.9C484.758,1522.2 485.98,1518.13 488.412,1514.39C491.167,1510.16 495.39,1506.33 498.521,1502.53C511.469,1486.82 527.944,1474.68 544.739,1463.12C543.226,1462.74 541.71,1462.32 540.088,1461.84C523.907,1473.08 508.157,1484.99 495.648,1500.16C492.433,1504.06 488.12,1508.02 485.291,1512.36C482.14,1517.2 480.732,1522.49 483.817,1528.58C485.051,1531.02 487.912,1533.55 491.641,1535.9C499.573,1540.91 511.481,1545.38 517.343,1547.75C513.454,1549.75 507.504,1552.81 507.283,1552.94C504.137,1554.74 500.68,1557.26 498.42,1560.29C496.763,1562.52 495.737,1565.02 495.771,1567.74C495.808,1570.58 497.002,1573.71 500.111,1576.99C502.138,1579.13 504.85,1580.61 507.826,1581.67C511.922,1583.15 516.528,1583.86 520.24,1584.79C534.184,1588.29 549.009,1590.16 562.45,1595.24C564.197,1595.9 571.649,1598.47 575.947,1600.96C576.723,1601.41 577.541,1602.08 577.955,1602.44C577.902,1602.49 577.847,1602.53 577.797,1602.56C577.165,1602.97 576.285,1603.3 575.31,1603.59C571.92,1604.6 567.471,1605.03 566.373,1605.17C552.472,1607.03 537.712,1604.17 524.06,1607.34C518.887,1608.54 514.843,1612.05 511.832,1617.14C511.029,1618.5 510.298,1619.97 509.638,1621.54C509.51,1620.71 509.329,1619.87 509.092,1619.03C506.626,1610.3 499.399,1604.78 492.169,1599.83C488.796,1597.52 485.442,1595.33 482.692,1592.92C480.313,1590.84 478.389,1588.61 477.428,1585.92C477.79,1585.46 478.761,1584.25 479.748,1583.23C482.423,1580.48 486.327,1576.76 489.129,1572.94C491.194,1570.13 492.646,1567.24 492.852,1564.62C494.135,1548.33 488.078,1541.74 482.986,1535.88C480.046,1532.5 477.387,1529.45 477.343,1524.32C477.291,1518.21 481.29,1511.69 485.703,1505.25C490.445,1498.33 495.722,1491.52 497.933,1485.48C499.166,1482.11 500.091,1478.66 500.749,1475.17C502.606,1471.56 504.173,1468.05 505.546,1465.44C510.201,1456.58 514.772,1447.31 519.852,1438.34C519.871,1435.63 520.064,1432.92 520.254,1430.34C513.653,1441.21 508.002,1452.76 502.249,1463.7C502.16,1463.88 502.07,1464.05 501.979,1464.23C502.237,1458.14 501.844,1451.98 501.002,1445.85C500.339,1448.25 499.431,1450.44 498.019,1452.32C498.634,1459.62 498.484,1466.91 497.192,1473.99C495.629,1476.99 493.853,1480.01 491.801,1482.58C489.013,1486.06 485.728,1488.71 481.626,1488.82C478.567,1488.9 476.908,1486.87 475.902,1484.21C474.027,1479.27 474.283,1472.28 474.2,1468.66C474.131,1465.61 474.011,1462.57 473.86,1459.52C472.599,1459.57 471.351,1459.6 470.138,1459.61C470.288,1462.66 470.408,1465.7 470.477,1468.74C470.566,1472.66 470.394,1480.19 472.42,1485.53C474.015,1489.74 476.878,1492.68 481.729,1492.54C486.371,1492.41 490.297,1489.9 493.594,1486.22C490.579,1492.73 484.483,1499.99 479.897,1507.29C476.263,1513.07 473.573,1518.89 473.619,1524.36C473.672,1530.5 476.648,1534.27 480.175,1538.33C484.785,1543.63 490.301,1549.58 489.14,1564.33C488.979,1566.36 487.732,1568.55 486.128,1570.74C483.429,1574.41 479.654,1577.98 477.077,1580.63C475.606,1582.15 474.502,1583.42 474.033,1584.29C473.54,1585.2 473.535,1585.97 473.701,1586.52C474.789,1590.06 477.158,1593.03 480.238,1595.73C483.093,1598.23 486.566,1600.51 490.067,1602.9C496.584,1607.36 503.285,1612.17 505.508,1620.04C507.026,1625.42 505.729,1630.62 503.524,1635.6C501.161,1640.94 497.749,1646.03 495.207,1650.84C492.398,1656.14 490.693,1661.16 491.9,1665.76C493.104,1670.34 497.201,1674.73 506.609,1678.48C506.805,1678.56 507.024,1678.64 507.264,1678.73C508.366,1683.68 509.747,1687.82 511.291,1690.63C514.443,1696.38 519.99,1699.23 526.119,1700.07C531.974,1700.88 538.352,1699.84 543.45,1697.91C550.387,1695.27 556.767,1690.81 563.263,1686.76C569.421,1682.92 575.682,1679.46 582.735,1678.6C597.788,1676.78 615.778,1681.15 632.797,1682.34C650.571,1683.58 667.278,1681.4 678.935,1666.38C687,1655.99 691.027,1642.88 693.001,1628.48C697.09,1627.21 701.084,1625.67 704.885,1623.84C709.031,1621.85 712.833,1619.6 716.307,1617.12C710.211,1627.16 704.915,1637.76 703.344,1648.68C702.38,1655.38 704.247,1661.25 708.014,1664.98C711.828,1668.76 717.626,1670.45 724.667,1668.48C732.271,1666.35 738.569,1661.14 743.795,1654.55C751.359,1645.03 756.682,1632.63 760.689,1623.25C768.825,1604.19 775.519,1584.12 780.652,1563.62C791.486,1562.67 803.484,1561.27 811.952,1557.16C821.842,1552.36 831.047,1541.43 838.779,1527.75C842.809,1522.64 846.161,1516.93 848.333,1511.09C848.361,1511.04 848.387,1510.99 848.411,1510.93C850.154,1506.89 851.269,1502.68 851.895,1498.43C856.717,1484.8 860.129,1470.86 861.688,1458.96C862.865,1449.98 862.98,1442.15 861.894,1436.43C861.094,1432.22 859.599,1429.09 857.536,1427.28C854.15,1424.31 850.463,1422.74 846.724,1422.28C848.912,1409.16 847.676,1389.48 843.826,1370.01C842.663,1364.13 841.263,1358.28 839.651,1352.62C843.995,1345.49 845.083,1338.37 840.098,1331.48C837.663,1328.12 833.301,1325.15 827.653,1322.61C825.393,1318.67 822.987,1315.26 820.462,1312.57C817.687,1309.6 814.872,1307.45 812.047,1305.99C812.764,1301.74 813.004,1297.5 812.603,1293.32C811.027,1276.91 801.012,1263.91 788.113,1255.02C784.859,1252.78 781.422,1250.8 777.894,1249.09C777.769,1247.72 777.536,1246.4 777.191,1245.14C775.374,1238.46 770.521,1233.04 761.829,1229.57C756.946,1227.62 750.794,1226.29 743.24,1225.71C742.736,1225.13 742.198,1224.56 741.622,1223.98C738.436,1220.79 734.699,1218.27 730.797,1216.03C701.182,1199.03 664.693,1204.03 633.289,1217.29C620.882,1215.32 608.036,1216.2 596.67,1219.93C577.049,1226.37 558.486,1237.08 542.889,1250.8C539.779,1249.41 536.848,1248.81 534.126,1249.05C528.669,1249.54 524.135,1253.82 520.933,1261.29C518.894,1266.05 517.358,1272.15 516.355,1279.27C508.692,1284.27 499.302,1291.1 492.587,1298.54C486.581,1305.19 482.763,1312.39 483.632,1319.21C484.658,1327.28 490.478,1330.92 498.733,1331.61C497.252,1347.55 499.518,1364.16 506.493,1380.8C511.259,1392.16 518.498,1402.71 527.226,1411.43ZM511.324,1679.93C512.249,1683.57 513.345,1686.63 514.556,1688.84C517.108,1693.5 521.665,1695.7 526.628,1696.38C531.865,1697.11 537.567,1696.16 542.127,1694.43C547.616,1692.34 552.732,1689.05 557.851,1685.78C550.292,1687.22 542.321,1687.18 533.856,1685.15C530.017,1684.23 518.459,1681.83 511.324,1679.93ZM640.373,1624.86C638.79,1626.24 637.21,1627.62 635.633,1628.99C621.457,1641.32 606.97,1657.83 590.73,1669.99C588.5,1671.66 586.238,1673.25 583.939,1674.73C598.857,1673.37 616.417,1677.46 633.057,1678.62C649.56,1679.78 665.171,1678.04 675.993,1664.1C683.388,1654.57 687.203,1642.67 689.147,1629.58C685.407,1630.56 681.617,1631.32 677.848,1631.85C664.39,1633.73 649.627,1632.54 640.373,1624.86ZM505.153,1640.76C503.007,1644.86 500.492,1648.81 498.498,1652.58C496.184,1656.95 494.507,1661.02 495.502,1664.81C496.43,1668.34 499.68,1671.44 506.401,1674.36C504.656,1664.37 503.991,1652.06 505.153,1640.76ZM776.728,1563.95C774.203,1564.17 771.778,1564.37 769.521,1564.59C764.441,1565.1 759.571,1565.66 754.846,1566.33C750.156,1572.59 745.554,1578.97 741.1,1585.54C737.516,1594.17 732.548,1602.07 725.934,1608.87C717.688,1621.4 709.075,1635 707.03,1649.21C706.256,1654.59 707.611,1659.34 710.635,1662.34C713.611,1665.29 718.17,1666.43 723.664,1664.89C730.531,1662.97 736.159,1658.18 740.879,1652.24C748.232,1642.98 753.369,1630.91 757.264,1621.79C765.161,1603.29 771.686,1583.83 776.728,1563.95ZM691.067,1586.67C673.68,1596.28 658.236,1609.31 643.246,1622.36C651.701,1629.08 665.196,1629.86 677.331,1628.16C681.454,1627.58 685.606,1626.72 689.68,1625.57C691.024,1614.27 691.145,1602.21 691.088,1590.12C691.082,1588.97 691.075,1587.82 691.067,1586.67ZM742.501,1568.38C728.21,1571.16 714.777,1575.31 700.128,1582.07C698.322,1582.9 696.537,1583.78 694.774,1584.69C694.79,1586.49 694.803,1588.3 694.812,1590.11C694.867,1601.78 694.712,1613.42 693.503,1624.41C696.858,1623.3 700.134,1621.99 703.272,1620.49C711.164,1616.69 717.736,1611.92 723.152,1606.37C725.539,1602.72 727.887,1599.16 730.037,1595.72C732.555,1591.67 735.139,1587.71 737.772,1583.83C739.799,1578.9 741.357,1573.73 742.501,1568.38ZM692.542,1539.75C685.954,1544.83 679.315,1549.38 672.709,1553.32C668.842,1559.78 664.73,1566.11 660.144,1572.06C656.284,1577.06 651.971,1581.95 647.269,1586.19C642.941,1590.09 639.033,1592.64 635.521,1594.08C635.049,1597.42 634.81,1600.57 634.862,1603.49C634.988,1610.61 637.108,1615.91 640.532,1619.78C656.312,1606.06 672.595,1592.34 691.036,1582.45C690.924,1567.63 690.84,1552.97 692.542,1539.75ZM637.703,1569.35C631.725,1571.2 625.613,1572.59 619.555,1573.26C617.504,1573.48 615.46,1573.63 613.427,1573.68C614.476,1577.24 615.733,1580.52 617.242,1583.31C619.797,1588.04 623.045,1591.34 627.447,1591.82C628.919,1591.98 630.494,1591.83 632.187,1591.35C633.325,1584.54 635.299,1577.07 637.703,1569.35ZM665.977,1557.15C658.753,1561.08 650.593,1564.92 642.063,1567.9C639.627,1575.5 637.549,1582.88 636.259,1589.66C638.843,1588.28 641.669,1586.23 644.775,1583.42C649.312,1579.34 653.47,1574.62 657.195,1569.78C660.322,1565.73 663.224,1561.49 665.977,1557.15ZM738.529,1495.01C725.44,1510.58 711.229,1524.75 696.722,1536.45C694.545,1549.88 694.604,1565.09 694.738,1580.53C696.004,1579.9 697.28,1579.28 698.568,1578.69C714.015,1571.56 728.131,1567.28 743.264,1564.45C744.187,1559.15 744.729,1553.71 744.941,1548.19C745.619,1530.57 742.954,1512.13 738.529,1495.01ZM749.651,1567.12C748.579,1567.29 747.513,1567.47 746.454,1567.65C746.082,1569.53 745.661,1571.38 745.191,1573.22C746.665,1571.17 748.152,1569.14 749.651,1567.12ZM607.946,1527.48C608.241,1537.43 608.872,1555.41 612.433,1569.97C614.658,1569.95 616.899,1569.8 619.148,1569.56C625.817,1568.82 632.551,1567.18 639.09,1565C643.09,1552.74 647.951,1540 651.989,1528.33C649.048,1529.1 646.07,1529.66 643.08,1530C635.412,1530.88 627.629,1530.6 619.99,1529.59C615.89,1529.05 611.864,1528.34 607.946,1527.48ZM569.671,1510.49C568.992,1512.59 568.466,1514.78 568.093,1517.03C565.424,1533.13 570.677,1552.25 585.36,1562.38C592.393,1567.23 600.346,1569.47 608.644,1569.9C605.111,1554.65 604.49,1536.25 604.195,1526.59C591.399,1523.37 579.958,1518.37 571.221,1511.71C570.694,1511.31 570.178,1510.9 569.671,1510.49ZM790.483,1413.56C789.568,1414.89 788.642,1416.2 787.704,1417.49C776.464,1442.84 760.202,1468.57 741.443,1491.49C747.718,1514.72 750.908,1540.57 747.156,1563.75C749.03,1563.43 750.922,1563.14 752.837,1562.86C763.419,1548.84 774.409,1535.43 785.077,1521.93C786.778,1510.16 787.95,1498.38 788.571,1486.69C789.456,1470.03 788.663,1453.05 791.052,1436.51C791.526,1433.22 792.056,1428.94 793.457,1425.27C794.491,1422.55 796.002,1420.17 798.19,1418.59C801.959,1415.87 805.794,1416.77 809.252,1419.45C813.592,1422.81 817.287,1429.14 819.091,1432.28C819.805,1433.52 820.486,1434.78 821.139,1436.05C822.983,1433.37 825.206,1430.92 827.682,1428.85C825.443,1426.24 822.741,1423.74 819.418,1421.54C812.701,1417.1 803.48,1413.93 790.483,1413.56ZM694.287,1503.6C688.138,1509.82 680.673,1515.01 673.406,1519.29C668.083,1522.42 662.325,1525.11 656.354,1527.06C652.45,1538.53 647.629,1551.16 643.532,1563.42C653.237,1559.78 662.36,1555.09 669.998,1550.6C671.484,1548.1 672.934,1545.58 674.363,1543.07C681.629,1530.26 688.2,1517.05 694.287,1503.6ZM783.957,1529.2C775.325,1540.06 766.548,1550.92 758.005,1562.15C761.624,1561.68 765.33,1561.27 769.153,1560.89C771.793,1560.62 774.67,1560.4 777.672,1560.15C780.165,1549.91 782.266,1539.57 783.957,1529.2ZM825.592,1470.81C814.738,1489.37 801.949,1506.4 788.641,1523.29C786.847,1535.53 784.486,1547.74 781.582,1559.83C791.654,1558.94 802.536,1557.59 810.326,1553.81C815.935,1551.08 821.266,1546.24 826.21,1540C824.153,1541.5 822.056,1542.82 819.96,1543.91C816.199,1545.86 811.072,1547.98 806.127,1548.49C802.566,1548.85 799.098,1548.38 796.195,1546.59C792.544,1544.34 791.237,1539.35 791.677,1533.77C792.034,1529.24 793.462,1524.35 795.205,1520.64C796.463,1517.97 797.922,1515.91 799.236,1514.88C805.531,1509.95 815.469,1509.53 824.443,1508.25C832.292,1507.13 839.435,1505.38 841.441,1497.53C842.745,1492.41 841.602,1487.61 839.615,1483.02C839.349,1482.41 839.068,1481.8 838.774,1481.19C836.793,1479.44 834.63,1477.82 832.474,1476.21C830.113,1474.43 827.76,1472.67 825.592,1470.81ZM720.914,1447.91C716.195,1460.55 711.321,1473.16 706.13,1485.64L706.079,1485.78C705.601,1487.11 705.052,1488.41 704.437,1489.68C696.448,1508.58 687.69,1527.12 677.602,1544.9L676.735,1546.42C682.284,1542.82 687.839,1538.79 693.347,1534.4C694.713,1526.53 696.844,1519.27 700.145,1512.92C707.973,1497.85 719.575,1485.21 731.71,1473.09C730.018,1468.46 728.233,1464.03 726.396,1459.86C724.627,1455.85 722.789,1451.87 720.914,1447.91ZM845.411,1489.33C845.889,1492.28 845.848,1495.31 845.049,1498.45C842.635,1507.9 834.417,1510.59 824.97,1511.94C820.676,1512.55 816.142,1512.92 811.929,1513.73C807.996,1514.48 804.346,1515.61 801.533,1517.81C800.539,1518.59 799.525,1520.21 798.574,1522.23C797.003,1525.57 795.711,1529.98 795.389,1534.06C795.22,1536.21 795.315,1538.27 795.823,1540.01C796.25,1541.47 796.965,1542.69 798.15,1543.42C800.366,1544.79 803.029,1545.06 805.748,1544.78C810.22,1544.32 814.844,1542.37 818.245,1540.6C824.342,1537.44 830.46,1532.22 835.5,1525.98C835.651,1525.71 835.801,1525.44 835.951,1525.18C840.148,1517.64 843.904,1509.29 847.103,1500.72C847.192,1499.94 847.252,1499.16 847.281,1498.39C847.414,1494.9 846.698,1491.93 845.411,1489.33ZM733.076,1476.93C721.652,1488.4 710.839,1500.41 703.45,1514.63C700.917,1519.51 699.102,1524.93 697.808,1530.76C711.567,1519.26 724.994,1505.59 737.359,1490.65C736.046,1485.94 734.607,1481.35 733.076,1476.93ZM669.49,1444.26C659.028,1451.47 647.901,1458.13 636.551,1464.46C643.206,1470.9 649.025,1477.03 651.881,1481.84C653.814,1485.1 654.412,1487.92 653.686,1489.98C652.922,1492.15 650.703,1493.89 646.221,1494.38C632.201,1495.89 619.377,1494.13 607.715,1489.79C607.597,1495.21 607.542,1500.63 607.554,1506.05C607.566,1511.92 607.655,1517.78 607.831,1523.64C611.931,1524.58 616.162,1525.33 620.476,1525.9C627.815,1526.86 635.292,1527.14 642.658,1526.3C646.29,1525.89 649.902,1525.12 653.443,1524.07C655.418,1518.16 657.117,1512.6 658.304,1507.59C663.238,1486.76 666.584,1465.54 669.49,1444.26ZM597.497,1485.19C592.721,1487.68 588,1490.16 583.363,1492.65C577.858,1495.6 573.735,1500.66 571.063,1506.8C571.84,1507.46 572.646,1508.12 573.478,1508.75C581.624,1514.96 592.223,1519.63 604.078,1522.72C603.921,1517.17 603.841,1511.62 603.83,1506.06C603.817,1500.15 603.883,1494.23 604.025,1488.32C601.805,1487.37 599.63,1486.32 597.497,1485.19ZM673.302,1443.84C670.351,1465.54 666.961,1487.19 661.928,1508.45C660.898,1512.8 659.485,1517.56 657.841,1522.6C662.611,1520.85 667.212,1518.61 671.518,1516.08C683.025,1509.31 695.177,1500.22 701.033,1488.17L701.35,1487.42C701.617,1486.79 701.884,1486.15 702.15,1485.52L702.637,1484.35C706.171,1474.42 705.636,1466.48 702.443,1460.33C697.588,1450.99 686.768,1445.88 675.588,1444.15C674.828,1444.03 674.066,1443.93 673.302,1443.84ZM818.871,1439.83C817.929,1437.9 816.934,1436 815.862,1434.13C814.219,1431.27 810.926,1425.45 806.973,1422.39C804.901,1420.79 802.63,1419.98 800.371,1421.61C798.752,1422.78 797.702,1424.59 796.936,1426.6C795.636,1430.01 795.178,1433.99 794.737,1437.04C792.365,1453.47 793.169,1470.34 792.29,1486.88C791.774,1496.59 790.882,1506.36 789.626,1516.13C801.602,1500.77 813.024,1485.15 822.818,1468.25C818.563,1463.98 815.548,1459.03 815.566,1452.34C815.577,1448.15 816.794,1443.83 818.871,1439.83ZM633.223,1466.3C624.857,1470.91 616.394,1475.35 608.008,1479.71C607.934,1481.75 607.869,1483.79 607.813,1485.83C619.279,1490.3 631.934,1492.17 645.823,1490.67C647.252,1490.52 648.356,1490.24 649.156,1489.8C649.665,1489.52 650.018,1489.19 650.173,1488.75C650.358,1488.22 650.296,1487.61 650.114,1486.91C649.862,1485.95 649.363,1484.89 648.679,1483.74C645.814,1478.92 639.933,1472.76 633.223,1466.3ZM838.049,1446.73C836.044,1451.19 833.915,1455.56 831.675,1459.84C832.788,1462.29 833.96,1464.73 835.235,1467.11C837.298,1470.96 839.813,1474.91 841.849,1479.01C844.684,1481.61 847.144,1484.47 848.8,1487.83C848.722,1484.48 848.398,1481.16 847.907,1477.95C845.677,1463.35 839.997,1450.88 838.049,1446.73ZM777.373,1430.48C772.051,1436.7 766.243,1442.97 759.714,1450.12C752.27,1458.27 744.042,1466.05 735.998,1474.01C737.498,1478.25 738.917,1482.64 740.224,1487.14C754.54,1469.39 767.316,1450.01 777.373,1430.48ZM852.386,1484.7C855.025,1475.51 856.942,1466.52 857.995,1458.48C859.111,1449.97 859.264,1442.54 858.235,1437.13C857.626,1433.92 856.652,1431.46 855.08,1430.08C852.229,1427.58 849.122,1426.3 845.972,1425.98C845.686,1427.16 845.362,1428.27 845.002,1429.3C843.465,1433.69 841.804,1437.98 840.032,1442.17C840.403,1442.97 840.757,1443.73 841.098,1444.46C842.689,1447.84 849.143,1461.38 851.588,1477.38C851.954,1479.78 852.229,1482.22 852.386,1484.7ZM604.213,1481.69L601.564,1483.07C602.414,1483.49 603.27,1483.89 604.132,1484.28L604.161,1483.32L604.213,1481.69ZM609.193,1456.88C608.777,1463.06 608.436,1469.25 608.176,1475.43C615.573,1471.58 623.021,1467.66 630.401,1463.61C628.752,1462.05 627.073,1460.48 625.395,1458.92C620.196,1459.34 614.769,1458.51 609.193,1456.88ZM829.479,1463.94C828.818,1465.15 828.147,1466.35 827.467,1467.55C829.561,1469.39 831.87,1471.1 834.183,1472.83C833.41,1471.5 832.654,1470.18 831.952,1468.87C831.084,1467.24 830.264,1465.6 829.479,1463.94ZM785.379,1413.55C781.766,1413.64 777.889,1413.93 773.726,1414.45C773.484,1418.88 772.519,1422.37 770.843,1424.67C761.363,1437.71 751.312,1444.92 740.956,1447.63C735.82,1448.98 730.597,1449.22 725.308,1448.5C726.841,1451.77 728.346,1455.05 729.804,1458.36C731.46,1462.12 733.073,1466.08 734.613,1470.2C742.218,1462.69 749.932,1455.31 756.964,1447.61C767.772,1435.77 776.591,1426.39 784.504,1415.56C784.799,1414.89 785.091,1414.22 785.379,1413.55ZM688.322,1429.93C684.082,1433.52 679.65,1436.98 675.067,1440.31C675.432,1440.36 675.796,1440.41 676.16,1440.47C688.535,1442.39 700.373,1448.27 705.747,1458.61C707.382,1461.76 708.435,1465.33 708.72,1469.33C711.688,1461.82 714.565,1454.27 717.385,1446.71C712.762,1445.28 708.099,1443.17 703.412,1440.48C698.407,1437.6 693.37,1434.04 688.322,1429.93ZM820.928,1444.22C819.886,1446.89 819.297,1449.65 819.29,1452.35C819.277,1457.12 821.139,1460.81 823.892,1464C824.158,1464.31 824.433,1464.62 824.715,1464.92C825.68,1463.19 826.627,1461.46 827.555,1459.71C825.293,1454.57 823.227,1449.34 820.928,1444.22ZM663.934,1443.53C655.67,1443.95 648.262,1446.23 644.165,1450.2C639.731,1454.5 634.972,1457.03 629.968,1458.21L630.62,1458.82C631.179,1459.35 631.738,1459.87 632.297,1460.4L633.742,1461.77C644.098,1456.02 654.274,1450 663.934,1443.53ZM829.985,1431.78C827.257,1434.07 824.867,1436.87 823.042,1439.93C825.439,1445.04 827.534,1450.28 829.757,1455.47C831.944,1451.16 834.017,1446.75 835.959,1442.24C834.436,1439.02 832.576,1435.37 829.985,1431.78ZM769.961,1414.97C766.97,1415.42 763.843,1415.98 760.569,1416.66C755.33,1417.75 744.576,1419.22 730.829,1420.87C730.551,1421.64 730.272,1422.41 729.991,1423.19C727.59,1429.8 725.176,1436.42 722.723,1443.04L723.372,1444.4C729.002,1445.51 734.557,1445.46 740.012,1444.03C749.681,1441.5 758.98,1434.65 767.831,1422.48C769.084,1420.76 769.724,1418.18 769.961,1414.97ZM709.102,1423.36C704.172,1423.91 699.075,1424.47 693.89,1425.02C692.997,1425.84 692.094,1426.65 691.182,1427.46C695.893,1431.26 700.594,1434.56 705.27,1437.25C709.772,1439.84 714.246,1441.87 718.679,1443.22C715.915,1437.47 713.103,1431.74 710.347,1425.97C709.931,1425.1 709.516,1424.23 709.102,1423.36ZM726.693,1421.36C722.36,1421.87 717.776,1422.39 713.018,1422.92C713.247,1423.41 713.476,1423.89 713.706,1424.37C715.945,1429.05 718.221,1433.71 720.477,1438.38C722.502,1432.88 724.501,1427.39 726.491,1421.91C726.558,1421.73 726.625,1421.54 726.693,1421.36ZM837.859,1437.69C839.134,1434.54 840.345,1431.33 841.487,1428.07C841.712,1427.42 841.922,1426.75 842.117,1426.04C838.949,1426.46 835.827,1427.72 832.965,1429.57C834.944,1432.31 836.525,1435.08 837.859,1437.69ZM683.802,1426.1C681.054,1426.39 678.294,1426.69 675.528,1426.98C675.129,1430.07 674.727,1433.15 674.319,1436.24C678.137,1433.42 681.846,1430.52 685.423,1427.51C684.883,1427.05 684.342,1426.58 683.802,1426.1ZM830.665,1426.62C834.489,1424.1 838.716,1422.48 842.983,1422.19C845.277,1409.51 843.986,1390.02 840.173,1370.74C839.232,1365.98 838.138,1361.24 836.903,1356.61C836.467,1357.18 836.014,1357.75 835.545,1358.32C829.365,1365.81 820.44,1373.28 813.053,1380.49C808.325,1385.1 804.233,1389.59 802.046,1393.91C799.054,1399.83 796.027,1405.09 792.889,1409.94C805.599,1410.64 814.734,1413.98 821.472,1418.44C825.193,1420.9 828.193,1423.71 830.665,1426.62ZM680.095,1422.76C678.899,1421.65 677.704,1420.52 676.509,1419.36C676.345,1420.64 676.181,1421.91 676.016,1423.19C677.376,1423.05 678.734,1422.9 680.095,1422.76ZM432.2,1416.59C428.317,1417.15 424.105,1417.75 422.875,1417.89L422.752,1417.9C421.915,1417.88 421.528,1418.33 421.47,1418.39C421.131,1418.7 420.967,1419.05 420.897,1419.4C420.824,1419.78 420.849,1420.18 421.059,1420.6C421.201,1420.88 421.51,1421.41 422.351,1421.59C422.373,1421.59 422.424,1421.6 422.501,1421.61L422.499,1421.61C422.499,1421.61 422.679,1421.64 422.89,1421.67C424.131,1421.88 427.741,1422.48 431.231,1423.17C431.355,1420.88 431.639,1418.65 432.2,1416.59ZM692.265,1421.46C696.088,1417.91 699.72,1414.22 703.125,1410.37C698.088,1398.96 693.658,1387.29 690.824,1375.09C689.295,1368.51 688.333,1361.81 687.966,1355.18L686.934,1355L685.397,1354.74C683.392,1369.74 681.106,1384.72 679.092,1399.63C679.063,1400 679.015,1400.35 678.948,1400.69L678.909,1400.98C678.296,1405.56 677.699,1410.14 677.106,1414.73C679.752,1417.36 682.399,1419.87 685.045,1422.24C687.465,1421.98 689.874,1421.72 692.265,1421.46ZM707.427,1419.81C706.536,1417.91 705.655,1416 704.788,1414.09C702.713,1416.38 700.56,1418.62 698.334,1420.81C701.414,1420.47 704.45,1420.14 707.427,1419.81ZM495.733,1417.41L495.782,1416.62C495.98,1415.83 496.496,1414.93 496.965,1414.27C498.663,1411.89 501.121,1411.1 503.926,1410.43C510.132,1408.94 516.464,1410.88 521.605,1414.37C522.254,1414.81 523.536,1415.52 524.469,1416.38C524.665,1416.57 524.844,1416.76 524.978,1416.95C525.013,1417.01 524.72,1419.14 525.564,1419.72C526.411,1420.3 527.571,1420.09 528.153,1419.24C529.299,1417.58 528.951,1415.91 527.731,1414.42C526.633,1413.09 524.636,1411.92 523.697,1411.29C517.703,1407.22 510.296,1405.08 503.061,1406.81C499.338,1407.69 496.188,1408.95 493.935,1412.11C493.189,1413.15 492.417,1414.62 492.133,1415.87C492.093,1416.05 491.996,1417.18 491.986,1417.69C491.978,1418.07 492.036,1418.34 492.058,1418.42C492.159,1418.78 492.326,1419.01 492.447,1419.14C492.731,1419.47 493.054,1419.64 493.359,1419.72C493.786,1419.84 494.231,1419.82 494.688,1419.59C494.765,1419.56 495.559,1419.27 495.741,1417.99C495.77,1417.79 495.766,1417.6 495.733,1417.41ZM728.093,1417.45C734.664,1398.97 740.629,1380.02 748.559,1362.03L748.206,1362.03C743.55,1361.94 738.664,1361.68 733.604,1361.28C732.874,1363.58 732.212,1365.69 731.655,1367.56C726.728,1384.1 718.297,1398.39 707.487,1411.02C708.742,1413.82 710.03,1416.6 711.337,1419.38C717.232,1418.72 722.861,1418.07 728.093,1417.45ZM770.061,1411.19C769.977,1405.73 769.009,1399.06 767.432,1391.7C765.461,1382.5 762.535,1372.23 759.13,1361.87C757.025,1361.98 754.854,1362.04 752.623,1362.05C744.644,1379.83 738.694,1398.6 732.218,1416.96C744.938,1415.41 754.85,1414.05 759.81,1413.01C763.39,1412.27 766.803,1411.66 770.061,1411.19ZM674.493,1405.96C673.183,1406.49 671.555,1406.82 669.566,1406.9C670.972,1408.42 672.38,1409.91 673.788,1411.36C674.021,1409.56 674.256,1407.76 674.493,1405.96ZM786.953,1409.81C791.004,1399.95 794.245,1390.19 796.523,1380.74C799.481,1368.46 800.634,1353.65 798.884,1339.4C797.266,1342.32 795.63,1345.12 794.054,1347.8C791.418,1352.27 787.003,1355.57 781.125,1357.85C776.086,1359.81 769.938,1361.01 762.95,1361.61C766.278,1371.79 769.133,1381.87 771.073,1390.92C772.665,1398.35 773.639,1405.11 773.774,1410.69C778.511,1410.13 782.894,1409.84 786.953,1409.81ZM468.208,1405.59C469.205,1405.62 470.587,1405.51 471.937,1405.38C472.044,1402.86 472.26,1400.17 472.769,1397.66C473.33,1394.89 474.228,1392.32 475.855,1390.55C476.941,1389.36 478.027,1390.34 479.202,1391.67C482.354,1395.24 485.339,1402.32 487.152,1407.18C488.414,1407.29 489.823,1407.35 491.221,1407.51C489.386,1402.47 485.772,1393.49 481.994,1389.21C480.334,1387.32 478.552,1386.3 476.914,1386.26C475.623,1386.22 474.322,1386.71 473.112,1388.03C471.067,1390.26 469.825,1393.43 469.119,1396.92C468.546,1399.75 468.318,1402.79 468.208,1405.59ZM691.715,1355.81C692.114,1361.96 693.037,1368.16 694.451,1374.25C697.097,1385.64 701.167,1396.56 705.815,1407.24C715.737,1395.33 723.488,1381.93 728.086,1366.5C728.583,1364.83 729.165,1362.97 729.806,1360.95C717.749,1359.84 704.81,1357.99 691.715,1355.81ZM555.96,1315.75C550.234,1318.5 535.125,1325.15 520.318,1328.95C523.066,1353.36 529.306,1380.44 539.316,1405.39C540.459,1404.25 541.631,1403.15 542.835,1402.08C551.127,1394.7 562.918,1387.59 574.405,1391.15C572.731,1387.59 571.151,1383.95 569.665,1380.24C565.747,1384.58 561.121,1388.62 556.443,1390.75C553.033,1392.3 549.584,1392.87 546.318,1392.04C543.063,1391.21 539.935,1389 537.236,1384.77C531.869,1376.35 532.693,1366.35 536.625,1356.49C541.043,1345.4 549.379,1334.51 556.459,1326.48C556.171,1322.93 555.999,1319.35 555.96,1315.75ZM659.274,1367.24C655.808,1368.69 652.374,1369.99 648.99,1371.14C647.552,1372.83 646.138,1374.48 644.797,1376.07L644.305,1376.66C651.484,1385.97 658.762,1394.9 666.078,1403.07C668.486,1403.3 670.418,1403.25 671.931,1402.91C673.22,1402.62 674.151,1402.13 674.714,1401.37C674.965,1401.03 675.14,1400.65 675.253,1400.23L675.414,1399.04C675.43,1398.41 675.36,1397.73 675.23,1397C674.195,1391.14 669.165,1382.68 663.151,1373.26C661.894,1371.29 660.593,1369.28 659.274,1367.24ZM641.902,1379.62C640.15,1381.86 638.658,1383.98 637.601,1385.98C636.243,1388.56 635.577,1390.88 636.398,1392.96C637.066,1394.66 638.678,1396.11 641.353,1397.45C645.348,1399.46 651.517,1401.1 660.487,1402.37C654.248,1395.23 648.042,1387.57 641.902,1379.62ZM808.049,1320.23C806.268,1324.92 804.119,1329.51 801.835,1333.92C804.622,1350.12 803.546,1367.49 800.144,1381.61C798.729,1387.48 796.95,1393.46 794.843,1399.5C796.146,1397.19 797.438,1394.78 798.723,1392.23C801.063,1387.6 805.392,1382.76 810.452,1377.83C817.745,1370.71 826.572,1363.34 832.673,1355.95C833.75,1354.64 834.744,1353.34 835.625,1352.04C832.708,1342.07 829.133,1332.84 825.032,1325.47C821.62,1324.04 817.734,1322.76 813.545,1321.61C811.765,1321.13 809.93,1320.66 808.049,1320.23ZM681.417,1356.41C675.18,1359.89 668.923,1363.03 662.744,1365.76C663.95,1367.61 665.139,1369.45 666.29,1371.25C670.615,1378.03 674.397,1384.36 676.711,1389.66C678.269,1378.61 679.913,1367.52 681.417,1356.41ZM556.954,1331.59C550.675,1339 543.876,1348.35 540.084,1357.87C536.623,1366.54 535.652,1375.35 540.376,1382.77C542.44,1386 544.746,1387.8 547.234,1388.43C549.711,1389.06 552.314,1388.54 554.901,1387.36C559.664,1385.19 564.341,1380.86 568.159,1376.37C565.548,1369.46 563.252,1362.28 561.265,1354.76C559.386,1347.66 557.876,1339.78 556.954,1331.59ZM641.789,1373.38L641.987,1373.64L642.337,1373.22L641.789,1373.38ZM588.513,1346.51C587.049,1350.21 585.527,1353.84 583.911,1357.39C586.495,1359.86 589.573,1362.59 593.175,1365.6C603.36,1374.11 618.388,1375.08 635.46,1371.16C631.331,1365.65 627.24,1360.06 623.195,1354.44C609.702,1356.02 597.853,1354.21 589.007,1346.93C588.841,1346.79 588.676,1346.65 588.513,1346.51ZM574.128,1315.15C570.364,1317.83 567.146,1320.5 564.601,1323.14C563.279,1324.52 561.82,1326.08 560.284,1327.78C561.135,1337 562.773,1345.9 564.865,1353.81C566.62,1360.45 568.621,1366.82 570.872,1372.97C572.754,1370.46 574.301,1368.06 575.374,1366.13C576.801,1363.55 578.15,1360.9 579.438,1358.2C575.507,1354.24 572.86,1350.95 571.343,1348.25C569.127,1344.31 569.173,1341.33 570.593,1339.22C571.538,1337.81 573.176,1336.7 575.522,1335.98C576.734,1335.61 578.158,1335.34 579.777,1335.15C577.904,1331.48 576.36,1327.21 575.19,1322.28C574.618,1319.87 574.268,1317.49 574.128,1315.15ZM647.653,1348.84C640.647,1351.05 633.824,1352.8 627.34,1353.86C631.307,1359.35 635.319,1364.81 639.368,1370.18C641.529,1369.61 643.719,1368.95 645.931,1368.24C646.236,1368.14 646.542,1368.04 646.848,1367.93C648.494,1366 650.164,1364.01 651.784,1361.97C652.537,1361.02 653.281,1360.06 654.005,1359.09C651.816,1355.67 649.663,1352.23 647.653,1348.84ZM656.134,1362.4C655.346,1363.43 654.542,1364.45 653.728,1365.46C654.886,1365.01 656.048,1364.55 657.215,1364.07L656.134,1362.4ZM663.59,1350.78C662.153,1353.66 660.402,1356.47 658.484,1359.19L659.107,1360.16L660.689,1362.59C666.699,1359.97 672.788,1356.94 678.863,1353.59C673.744,1352.67 668.637,1351.73 663.59,1350.78ZM744.153,1322.38C741.743,1335.22 737.866,1347.81 734.756,1357.64C739.429,1358 743.951,1358.23 748.274,1358.31C748.929,1358.32 749.58,1358.33 750.227,1358.33C751.657,1355.22 753.151,1352.15 754.724,1349.11C751.315,1339.69 747.669,1330.53 744.153,1322.38ZM756.444,1353.95C755.727,1355.4 755.026,1356.85 754.34,1358.31C755.549,1358.29 756.739,1358.25 757.908,1358.2L757.318,1356.47C757.109,1355.86 756.899,1355.26 756.689,1354.65L756.444,1353.95ZM783.18,1316.09C773.029,1325.07 764.311,1338.93 758.77,1349.41C759.789,1352.25 760.785,1355.12 761.747,1357.98C768.698,1357.45 774.804,1356.31 779.778,1354.38C784.781,1352.44 788.603,1349.71 790.847,1345.9C793.156,1341.99 795.616,1337.78 797.957,1333.36C797.303,1329.83 796.453,1326.36 795.393,1323C794.796,1321.11 794.131,1319.25 793.395,1317.44C790.01,1316.92 786.587,1316.47 783.18,1316.09ZM740.871,1314.98C739.56,1315.13 738.386,1315.31 737.368,1315.51C723.789,1328.2 707.895,1340.38 691.501,1350.49L691.511,1351.11L691.536,1352.04C705.11,1354.31 718.518,1356.22 730.958,1357.33C734.525,1346.1 739.214,1331.08 741.433,1316.22L740.871,1314.98ZM651.785,1348.54C653.244,1350.96 654.771,1353.4 656.325,1355.84C657.602,1353.95 658.782,1352.03 659.808,1350.07L656.019,1349.35L651.785,1348.54ZM581.803,1338.7C579.772,1338.84 578.03,1339.11 576.611,1339.54C575.254,1339.95 574.231,1340.48 573.685,1341.29C572.868,1342.51 573.315,1344.16 574.589,1346.43C575.869,1348.71 578.011,1351.41 581.099,1354.6C582.692,1351.05 584.195,1347.42 585.644,1343.74C584.269,1342.23 582.985,1340.56 581.803,1338.7ZM591.459,1338.85C590.963,1340.17 590.464,1341.49 589.959,1342.81C590.419,1343.24 590.891,1343.66 591.374,1344.06C599.034,1350.36 609.176,1352.02 620.697,1350.96C618.483,1347.87 616.285,1344.77 614.107,1341.7C605.541,1340.31 597.863,1339.29 591.459,1338.85ZM619.247,1342.55C621.118,1345.18 623.002,1347.83 624.897,1350.46L625.149,1350.43C630.545,1349.64 636.191,1348.35 641.998,1346.69C634.025,1345.18 626.376,1343.76 619.247,1342.55ZM684.077,1335.04C678.341,1337.42 672.553,1339.8 666.796,1342.03C666.394,1343.82 665.832,1345.59 665.139,1347.33C670.785,1348.38 676.494,1349.43 682.211,1350.44C682.879,1345.31 683.509,1340.17 684.077,1335.04ZM689.078,1332.95L688,1333.4C687.425,1338.75 686.781,1344.09 686.093,1349.43L687.281,1348.72L687.798,1348.4C687.832,1343.14 688.254,1337.96 689.078,1332.95ZM830.6,1328.21C833.404,1333.99 835.938,1340.58 838.145,1347.6C840.252,1342.9 840.394,1338.24 837.082,1333.66C835.631,1331.66 833.411,1329.85 830.6,1328.21ZM662.502,1343.67C660.601,1344.39 658.706,1345.09 656.818,1345.76L661.424,1346.63C661.83,1345.65 662.191,1344.67 662.502,1343.67ZM729.664,1317.49C718.605,1320.73 706.092,1325.85 693.092,1331.27C692.178,1336.06 691.662,1341.03 691.525,1346.1C704.977,1337.64 718.036,1327.81 729.664,1317.49ZM778.27,1315.58C765.779,1314.39 753.89,1314.1 745.411,1314.6L745.325,1315.24L745.258,1315.71C749.106,1324.29 753.209,1334.31 757.066,1344.74C762.306,1335.27 769.736,1323.92 778.27,1315.58ZM686.592,1281.95C679.44,1284.67 672.22,1287.2 664.888,1289.4C666.175,1291.52 667.194,1293.6 667.876,1295.53C669.41,1299.89 669.185,1303.6 667.185,1305.85C665.809,1307.39 663.532,1308.4 660.075,1308.33C650.389,1308.11 644.673,1309.86 641.922,1313.41C639.254,1316.85 639.611,1321.79 641.441,1327.56C643.066,1332.68 645.898,1338.39 649.301,1344.33L649.527,1344.37C654.146,1342.86 658.836,1341.17 663.551,1339.37C665.84,1329.57 675.215,1314.68 686.643,1302.92C686.943,1296.09 687.062,1288.99 686.592,1281.95ZM661.204,1290.47C659.71,1290.9 658.21,1291.3 656.705,1291.69C640.101,1296 622.867,1298.16 605.888,1301.13C603.83,1305.77 601.922,1310.54 600.084,1315.38C605.34,1322.81 610.736,1330.52 616.241,1338.3C624.944,1339.74 634.508,1341.53 644.555,1343.43C641.692,1338.22 639.331,1333.22 637.891,1328.68C635.618,1321.52 635.665,1315.4 638.98,1311.13C642.213,1306.96 648.771,1304.35 660.157,1304.6C662.187,1304.65 663.596,1304.28 664.403,1303.37C664.945,1302.76 665.158,1301.94 665.18,1300.99C665.21,1299.74 664.907,1298.31 664.363,1296.77C663.666,1294.79 662.583,1292.65 661.204,1290.47ZM586.253,1338.62C586.551,1339.02 586.856,1339.41 587.167,1339.8L587.603,1338.65L586.76,1338.62L586.253,1338.62ZM686.354,1308.62C677.664,1318.24 670.593,1329.38 667.884,1337.69C673.434,1335.51 679.003,1333.21 684.521,1330.9C685.294,1323.48 685.928,1316.05 686.354,1308.62ZM598.513,1319.57C596.586,1324.77 594.715,1330.01 592.803,1335.21C598.152,1335.63 604.332,1336.43 611.13,1337.48C606.85,1331.41 602.64,1325.41 598.513,1319.57ZM588.893,1306.07C584.89,1308.25 581.162,1310.45 577.781,1312.66C577.773,1315.53 578.107,1318.44 578.814,1321.42C580.066,1326.7 581.763,1331.16 583.861,1334.9C585.081,1334.87 586.375,1334.88 587.739,1334.92C588.145,1334.94 588.557,1334.95 588.975,1334.97C591.314,1328.65 593.58,1322.26 595.945,1315.94C593.564,1312.58 591.212,1309.28 588.893,1306.07ZM717.475,1288.28C712.819,1288.6 707.724,1290.85 702.642,1294.21C698.448,1296.98 694.258,1300.52 690.299,1304.47C690.267,1305.17 690.233,1305.87 690.197,1306.56C689.805,1314.13 689.192,1321.7 688.43,1329.27L689.893,1328.66C693.409,1312.38 701.424,1298.35 714.462,1290.05C715.438,1289.43 716.443,1288.84 717.475,1288.28ZM797.662,1318.14C798.119,1319.37 798.545,1320.61 798.944,1321.88C799.585,1323.9 800.152,1325.98 800.646,1328.07C802.016,1325.25 803.3,1322.36 804.432,1319.43C802.216,1318.97 799.954,1318.54 797.662,1318.14ZM515.246,1290.77C508.925,1302.42 504.607,1314.96 502.87,1328.01C504.555,1327.96 506.319,1327.82 508.136,1327.59C510.763,1327.26 513.498,1326.76 516.275,1326.13C515.613,1319.61 515.203,1313.29 515.038,1307.28C514.879,1301.47 514.951,1295.94 515.246,1290.77ZM514.155,1285.22C507.702,1289.67 500.661,1295.15 495.352,1301.03C490.169,1306.78 486.576,1312.86 487.326,1318.75C487.971,1323.82 491.258,1326.41 495.932,1327.44C496.945,1327.67 498.02,1327.82 499.145,1327.91C501.102,1312.85 506.381,1298.44 514.155,1285.22ZM724.01,1289.34C721.318,1290.41 718.803,1291.7 716.463,1293.19C704.883,1300.57 697.586,1312.71 694.047,1326.92C709.118,1320.64 723.467,1314.87 735.573,1312.09C736.492,1311.22 737.399,1310.35 738.295,1309.48C735.115,1302.88 732.264,1297.67 730.091,1294.56C728.315,1292.02 726.263,1290.33 724.01,1289.34ZM556.147,1265.4C543.618,1269.15 532.597,1273.59 523.997,1278.85C523.234,1279.32 522.43,1279.81 521.59,1280.34C520.902,1281.36 520.228,1282.38 519.573,1283.41C518.797,1290.51 518.524,1298.52 518.761,1307.17C518.918,1312.94 519.305,1319 519.925,1325.24C534.68,1321.4 549.69,1314.67 554.823,1312.16C555.206,1311.98 555.59,1311.79 555.975,1311.61C556.22,1298.06 558.447,1284.66 563.572,1273.37C561.024,1270.45 558.547,1267.78 556.147,1265.4ZM574.291,1308.46C569.321,1310.04 564.428,1311.86 559.637,1314.02C559.636,1316.92 559.726,1319.82 559.897,1322.7C560.596,1321.95 561.273,1321.23 561.918,1320.56C565.054,1317.3 569.195,1313.99 574.11,1310.69C574.149,1309.94 574.21,1309.2 574.291,1308.46ZM811.276,1309.81C810.739,1312.12 810.075,1314.42 809.31,1316.7C811.09,1317.12 812.834,1317.56 814.528,1318.02C817.092,1318.73 819.545,1319.49 821.856,1320.3C820.529,1318.36 819.157,1316.62 817.743,1315.11C815.601,1312.82 813.443,1311.07 811.276,1309.81ZM807.865,1308.22C806.715,1307.82 805.563,1307.54 804.412,1307.38C800.752,1306.88 797.125,1307.58 793.587,1309.13C794.464,1310.74 795.277,1312.4 796.026,1314.1C799.319,1314.63 802.565,1315.23 805.715,1315.9C806.577,1313.36 807.307,1310.79 807.865,1308.22ZM790.269,1310.84C789.241,1311.44 788.223,1312.11 787.217,1312.84C788.682,1313.02 790.146,1313.22 791.607,1313.43C791.18,1312.55 790.734,1311.69 790.269,1310.84ZM762.364,1287.93C757.773,1294.15 752.319,1300.51 746.208,1306.83C746.117,1308.17 745.999,1309.52 745.858,1310.88C755.269,1310.39 768.415,1310.79 781.95,1312.23L782.465,1311.8C784.395,1310.22 786.372,1308.82 788.382,1307.64C782.501,1298.38 774.043,1291.22 762.364,1287.93ZM601.512,1301.91C598.985,1302.38 596.466,1302.87 593.956,1303.4C593.364,1303.7 592.776,1304 592.194,1304.31C593.953,1306.75 595.73,1309.24 597.527,1311.77C598.808,1308.44 600.128,1305.15 601.512,1301.91ZM566.261,1276.5C562.029,1286.52 560.066,1298.12 559.701,1309.92C564.689,1307.76 569.78,1305.95 574.951,1304.38C575.803,1300.42 577.241,1296.57 579.188,1292.86C574.725,1286.92 570.408,1281.42 566.261,1276.5ZM580.589,1306.6C579.791,1306.82 578.994,1307.04 578.201,1307.27L578.08,1308.12C578.9,1307.61 579.738,1307.1 580.589,1306.6ZM741.005,1285.77C736.591,1286 732.494,1286.67 728.705,1287.75C730.303,1288.94 731.79,1290.49 733.143,1292.43C735.256,1295.45 738.005,1300.43 741.075,1306.74L742.022,1305.79L742.576,1305.22C742.644,1303.95 742.685,1302.69 742.699,1301.45C742.761,1295.92 742.276,1290.61 741.005,1285.77ZM777.952,1253.27C777.683,1257.82 776.384,1262.77 774.168,1267.98C771.902,1273.32 768.678,1278.94 764.663,1284.72C776.757,1288.45 785.569,1296.1 791.706,1305.91C796.024,1303.95 800.464,1303.08 804.919,1303.69C806.124,1303.86 807.333,1304.13 808.543,1304.52C809.084,1300.88 809.24,1297.26 808.896,1293.67C807.429,1278.4 798.007,1266.37 785.999,1258.09C783.42,1256.31 780.72,1254.7 777.952,1253.27ZM581.672,1296.18C580.585,1298.47 579.709,1300.8 579.065,1303.19C581.228,1302.59 583.403,1302.03 585.587,1301.51C584.271,1299.7 582.965,1297.92 581.672,1296.18ZM744.81,1285.68C745.984,1290.51 746.468,1295.74 746.425,1301.19C750.855,1296.44 754.888,1291.68 758.424,1287C757.698,1286.85 756.962,1286.73 756.214,1286.61C752.215,1286.01 748.415,1285.7 744.81,1285.68ZM676.578,1247.29C664.766,1248.05 652.203,1249.06 639.452,1250.39C625.704,1256.45 612.634,1263.79 602.06,1272.23C594.299,1278.43 587.879,1285.22 583.596,1292.55C585.541,1295.16 587.514,1297.85 589.513,1300.6L590.145,1300.46C590.673,1300.34 591.202,1300.23 591.731,1300.11L592.839,1299.88C596.739,1297.9 600.837,1295.94 605.08,1294.03C606.768,1290.52 608.564,1287.11 610.502,1283.83C617.771,1271.51 627.565,1262.79 642.613,1269.06C646.206,1270.56 649.821,1272.94 653.171,1275.79C664.093,1272.3 674.779,1269.3 684.517,1266.97C683.329,1261.68 681.605,1256.55 679.154,1251.75C678.365,1250.21 677.505,1248.72 676.578,1247.29ZM725.184,1265.88C722.437,1267.27 719.728,1268.49 717.229,1269.52C708.248,1273.24 699.271,1277.03 690.201,1280.56C690.674,1286.77 690.693,1293.03 690.508,1299.13C693.789,1296.09 697.185,1293.35 700.588,1291.1C708.858,1285.63 717.149,1283.05 724.08,1285.33C728.833,1283.6 734.084,1282.49 739.853,1282.11C737.375,1275.41 733.077,1269.88 726.207,1266.3C725.907,1266.14 725.565,1266 725.184,1265.88ZM652.311,1279.94C637.237,1284.8 621.793,1290.56 607.889,1296.76L607.733,1297.09C623.806,1294.35 640.065,1292.16 655.769,1288.09C656.834,1287.81 657.897,1287.53 658.955,1287.24C657.031,1284.69 654.768,1282.19 652.311,1279.94ZM648.983,1277.14C646.458,1275.21 643.813,1273.6 641.181,1272.5C628.2,1267.09 619.979,1275.09 613.709,1285.72C612.562,1287.66 611.465,1289.65 610.411,1291.68C622.687,1286.37 635.94,1281.43 648.983,1277.14ZM628.001,1251.67C625.419,1251.98 622.828,1252.31 620.241,1252.65C605.22,1254.61 590.321,1257.07 576.461,1260.16C573.384,1263.76 570.66,1267.64 568.445,1271.87C568.288,1272.17 568.133,1272.47 567.981,1272.78C572.213,1277.73 576.625,1283.3 581.196,1289.35C585.679,1282.15 592.062,1275.45 599.736,1269.32C607.954,1262.76 617.651,1256.85 628.001,1251.67ZM685.25,1270.62C676.235,1272.78 666.396,1275.51 656.311,1278.67C658.701,1281.03 660.885,1283.59 662.736,1286.16C670.698,1283.81 678.522,1281.06 686.272,1278.09C686.023,1275.58 685.688,1273.09 685.25,1270.62ZM748.322,1245.06C747.372,1247.76 745.761,1250.31 743.673,1252.7C739.954,1256.94 734.696,1260.65 729.25,1263.72C736.595,1267.97 741.174,1274.34 743.739,1281.96C747.839,1281.92 752.181,1282.23 756.773,1282.93C758.165,1283.14 759.52,1283.4 760.84,1283.7C765.051,1277.77 768.419,1271.99 770.74,1266.53C773.032,1261.13 774.305,1256.07 774.291,1251.51C765.58,1247.58 756.421,1245.37 748.322,1245.06ZM717.664,1265.29L717.304,1265.3C710.588,1265.55 701.327,1267.01 690.622,1269.38C690.037,1269.51 689.447,1269.65 688.858,1269.78C689.268,1272.07 689.593,1274.38 689.846,1276.7C698.554,1273.29 707.176,1269.65 715.804,1266.08C716.412,1265.83 717.033,1265.57 717.664,1265.29ZM539.824,1253.57C537.945,1252.9 536.155,1252.61 534.455,1252.76C530.145,1253.14 526.884,1256.86 524.356,1262.76C522.892,1266.17 521.709,1270.31 520.809,1275.03C526.354,1267.32 532.757,1260.13 539.824,1253.57ZM543.46,1255.24C537.48,1260.68 531.972,1266.57 527.061,1272.84C534.503,1268.92 543.319,1265.48 553.077,1262.47C550.059,1259.71 547.171,1257.46 544.423,1255.8C544.1,1255.61 543.779,1255.42 543.46,1255.24ZM570.623,1261.51C567.066,1262.37 563.59,1263.27 560.211,1264.22C561.893,1265.94 563.607,1267.79 565.352,1269.76C566.897,1266.86 568.668,1264.12 570.623,1261.51ZM744.34,1245.01C734.67,1244.98 710.394,1245.23 680.795,1247.03C681.381,1248.01 681.941,1249.02 682.471,1250.06C685.058,1255.13 686.875,1260.54 688.124,1266.13C688.69,1266 689.255,1265.87 689.816,1265.75C700.787,1263.31 710.282,1261.84 717.166,1261.58C720.153,1261.47 722.682,1261.61 724.679,1261.98C730.708,1258.85 736.784,1254.91 740.873,1250.24C742.323,1248.59 743.519,1246.84 744.34,1245.01ZM626.726,1220.21C616.816,1219.43 606.829,1220.51 597.831,1223.47C579.141,1229.6 561.406,1239.71 546.397,1252.64C549.792,1254.7 553.401,1257.61 557.198,1261.23C562.707,1259.64 568.482,1258.17 574.451,1256.81C582.282,1247.94 592.127,1240.69 601.823,1234.24C609.428,1229.17 617.825,1224.38 626.726,1220.21ZM633.776,1221.09C623.017,1225.73 612.883,1231.34 603.888,1237.34C595.897,1242.66 587.773,1248.51 580.853,1255.42C593.314,1252.82 606.487,1250.69 619.758,1248.95C626.021,1248.13 632.306,1247.4 638.543,1246.74C647.911,1242.64 657.571,1239.12 666.971,1236.24C657.824,1228.24 646.061,1223.19 633.776,1221.09ZM746.251,1229.72C748.356,1233.11 749.265,1236.36 749.287,1239.43C749.292,1240.09 749.256,1240.73 749.182,1241.37C756.93,1241.77 765.549,1243.77 773.872,1247.27C773.792,1246.88 773.701,1246.49 773.597,1246.11C771.649,1238.95 765.421,1233.71 754.025,1231.04C751.653,1230.48 749.066,1230.04 746.251,1229.72ZM670.079,1239.17C663.938,1241.01 657.665,1243.12 651.423,1245.49C659.146,1244.79 666.729,1244.21 674.049,1243.72C672.811,1242.13 671.485,1240.61 670.079,1239.17ZM741.392,1229.29C730.509,1228.62 716.728,1229.5 699.645,1232.27C691.855,1233.53 683.155,1235.46 674.082,1238.01C675.648,1239.72 677.112,1241.53 678.463,1243.44C710.301,1241.45 736.353,1241.24 745.439,1241.29C745.525,1240.69 745.568,1240.08 745.563,1239.46C745.54,1236.25 744.259,1232.87 741.392,1229.29ZM737.733,1225.42C735.071,1223.01 732.06,1221.05 728.944,1219.26C701.915,1203.75 669.013,1207.32 639.856,1218.61C651.556,1221.46 662.537,1226.93 671.107,1235C681.034,1232.12 690.571,1229.96 699.051,1228.59C714.464,1226.1 727.265,1225.13 737.733,1225.42Z" style="fill:white;"/>
            </g>
        </g>
    </g>
</svg>
